# xmcd
#
# Track frame offsets:
#	225
#	21960
#	43190
#	116900
#	183755
#	206263
#	249935
#	267241
#	319533
#
# Disc length: 4488 seconds
#
# Revision: 0
# Processed by: cddbd v1.5.2PL0 Copyright (c) Steve Scherf et al.
# Submitted via: EasyCDDAExtractor 11.5.0.1
#
DISCID=75118509
DTITLE=Van Morrison - A Night in San Francisco, Disc 2 of 2
DYEAR=2008
DGENRE=R&B
TTITLE0=Jumpin'With Symphony Sid
TTITLE1=It Fills You Up
TTITLE2=I'll Take Care of You - It's A Man's , Man's Man's World
TTITLE3=LonelY Avenue - 4 o'clock in the Morning
TTITLE4=So Quiet in Here - That's Where It's At
TTITLE5=In The Garden - You Send Me - Allegheny
TTITLE6=Have I Told You Lately ?
TTITLE7=Shakin' All Over - Gloria
TTITLE8=Cleaning Windows
EXTD=
EXTT0=
EXTT1=
EXTT2=
EXTT3=
EXTT4=
EXTT5=
EXTT6=
EXTT7=
EXTT8=
PLAYORDER=
